<mxfile host="app.diagrams.net" modified="2023-05-17T11:34:20.041Z" agent="Mozilla/5.0 (Macintosh; Intel Mac OS X 10_15_7) AppleWebKit/537.36 (KHTML, like Gecko) Chrome/113.0.0.0 Safari/537.36" etag="DrWpp-k3rGPTgCplxOxW" version="21.3.0" type="github">
  <diagram id="prtHgNgQTEPvFCAcTncT" name="Page-1">
    <mxGraphModel dx="1987" dy="1049" grid="1" gridSize="10" guides="1" tooltips="1" connect="1" arrows="1" fold="1" page="1" pageScale="1" pageWidth="827" pageHeight="1169" math="0" shadow="0">
      <root>
        <mxCell id="0" />
        <mxCell id="1" parent="0" />
        <mxCell id="z57WkmotIWv1s7nrHuUx-3" style="edgeStyle=orthogonalEdgeStyle;rounded=0;orthogonalLoop=1;jettySize=auto;html=1;exitX=0.5;exitY=1;exitDx=0;exitDy=0;entryX=0.5;entryY=0;entryDx=0;entryDy=0;" edge="1" parent="1" source="z57WkmotIWv1s7nrHuUx-1" target="z57WkmotIWv1s7nrHuUx-2">
          <mxGeometry relative="1" as="geometry" />
        </mxCell>
        <mxCell id="z57WkmotIWv1s7nrHuUx-1" value="开始" style="rounded=1;whiteSpace=wrap;html=1;" vertex="1" parent="1">
          <mxGeometry x="280" y="30" width="120" height="60" as="geometry" />
        </mxCell>
        <mxCell id="z57WkmotIWv1s7nrHuUx-5" style="edgeStyle=orthogonalEdgeStyle;rounded=0;orthogonalLoop=1;jettySize=auto;html=1;exitX=1;exitY=0.5;exitDx=0;exitDy=0;" edge="1" parent="1" source="z57WkmotIWv1s7nrHuUx-2" target="z57WkmotIWv1s7nrHuUx-4">
          <mxGeometry relative="1" as="geometry" />
        </mxCell>
        <mxCell id="z57WkmotIWv1s7nrHuUx-17" value="否" style="edgeLabel;html=1;align=center;verticalAlign=middle;resizable=0;points=[];" vertex="1" connectable="0" parent="z57WkmotIWv1s7nrHuUx-5">
          <mxGeometry x="-0.7082" y="-2" relative="1" as="geometry">
            <mxPoint as="offset" />
          </mxGeometry>
        </mxCell>
        <mxCell id="z57WkmotIWv1s7nrHuUx-13" style="edgeStyle=orthogonalEdgeStyle;rounded=0;orthogonalLoop=1;jettySize=auto;html=1;exitX=0.5;exitY=1;exitDx=0;exitDy=0;entryX=0.5;entryY=0;entryDx=0;entryDy=0;" edge="1" parent="1" source="z57WkmotIWv1s7nrHuUx-2" target="z57WkmotIWv1s7nrHuUx-11">
          <mxGeometry relative="1" as="geometry" />
        </mxCell>
        <mxCell id="z57WkmotIWv1s7nrHuUx-21" value="存在" style="edgeLabel;html=1;align=center;verticalAlign=middle;resizable=0;points=[];" vertex="1" connectable="0" parent="z57WkmotIWv1s7nrHuUx-13">
          <mxGeometry x="-0.1333" y="-3" relative="1" as="geometry">
            <mxPoint as="offset" />
          </mxGeometry>
        </mxCell>
        <mxCell id="z57WkmotIWv1s7nrHuUx-2" value="sourcemap存在" style="rhombus;whiteSpace=wrap;html=1;" vertex="1" parent="1">
          <mxGeometry x="275" y="140" width="130" height="130" as="geometry" />
        </mxCell>
        <mxCell id="z57WkmotIWv1s7nrHuUx-20" style="edgeStyle=orthogonalEdgeStyle;rounded=0;orthogonalLoop=1;jettySize=auto;html=1;exitX=0.5;exitY=1;exitDx=0;exitDy=0;entryX=1;entryY=0.5;entryDx=0;entryDy=0;" edge="1" parent="1" source="z57WkmotIWv1s7nrHuUx-4" target="z57WkmotIWv1s7nrHuUx-10">
          <mxGeometry relative="1" as="geometry" />
        </mxCell>
        <mxCell id="z57WkmotIWv1s7nrHuUx-4" value="兜底处理人" style="rounded=0;whiteSpace=wrap;html=1;" vertex="1" parent="1">
          <mxGeometry x="560" y="600" width="120" height="60" as="geometry" />
        </mxCell>
        <mxCell id="z57WkmotIWv1s7nrHuUx-9" style="edgeStyle=orthogonalEdgeStyle;rounded=0;orthogonalLoop=1;jettySize=auto;html=1;exitX=0.5;exitY=1;exitDx=0;exitDy=0;entryX=0.5;entryY=0;entryDx=0;entryDy=0;" edge="1" parent="1" source="z57WkmotIWv1s7nrHuUx-11" target="z57WkmotIWv1s7nrHuUx-7">
          <mxGeometry relative="1" as="geometry">
            <mxPoint x="340" y="370" as="sourcePoint" />
          </mxGeometry>
        </mxCell>
        <mxCell id="z57WkmotIWv1s7nrHuUx-22" value="解析成功" style="edgeLabel;html=1;align=center;verticalAlign=middle;resizable=0;points=[];" vertex="1" connectable="0" parent="z57WkmotIWv1s7nrHuUx-9">
          <mxGeometry x="-0.16" relative="1" as="geometry">
            <mxPoint as="offset" />
          </mxGeometry>
        </mxCell>
        <mxCell id="z57WkmotIWv1s7nrHuUx-18" style="edgeStyle=orthogonalEdgeStyle;rounded=0;orthogonalLoop=1;jettySize=auto;html=1;exitX=1;exitY=0.5;exitDx=0;exitDy=0;entryX=0.5;entryY=0;entryDx=0;entryDy=0;" edge="1" parent="1" source="z57WkmotIWv1s7nrHuUx-7" target="z57WkmotIWv1s7nrHuUx-4">
          <mxGeometry relative="1" as="geometry" />
        </mxCell>
        <mxCell id="z57WkmotIWv1s7nrHuUx-23" value="定位失败" style="edgeLabel;html=1;align=center;verticalAlign=middle;resizable=0;points=[];" vertex="1" connectable="0" parent="z57WkmotIWv1s7nrHuUx-18">
          <mxGeometry x="-0.1381" y="-2" relative="1" as="geometry">
            <mxPoint as="offset" />
          </mxGeometry>
        </mxCell>
        <mxCell id="z57WkmotIWv1s7nrHuUx-19" style="edgeStyle=orthogonalEdgeStyle;rounded=0;orthogonalLoop=1;jettySize=auto;html=1;exitX=0.5;exitY=1;exitDx=0;exitDy=0;entryX=0.442;entryY=-0.067;entryDx=0;entryDy=0;entryPerimeter=0;" edge="1" parent="1" source="z57WkmotIWv1s7nrHuUx-7" target="z57WkmotIWv1s7nrHuUx-10">
          <mxGeometry relative="1" as="geometry" />
        </mxCell>
        <mxCell id="z57WkmotIWv1s7nrHuUx-24" value="定位成功" style="edgeLabel;html=1;align=center;verticalAlign=middle;resizable=0;points=[];" vertex="1" connectable="0" parent="z57WkmotIWv1s7nrHuUx-19">
          <mxGeometry x="-0.1513" relative="1" as="geometry">
            <mxPoint as="offset" />
          </mxGeometry>
        </mxCell>
        <mxCell id="z57WkmotIWv1s7nrHuUx-7" value="GithubAPI定位" style="rhombus;whiteSpace=wrap;html=1;" vertex="1" parent="1">
          <mxGeometry x="277.5" y="510" width="125" height="130" as="geometry" />
        </mxCell>
        <mxCell id="z57WkmotIWv1s7nrHuUx-10" value="结束" style="rounded=1;whiteSpace=wrap;html=1;" vertex="1" parent="1">
          <mxGeometry x="287" y="710" width="120" height="60" as="geometry" />
        </mxCell>
        <mxCell id="z57WkmotIWv1s7nrHuUx-12" value="" style="edgeStyle=orthogonalEdgeStyle;rounded=0;orthogonalLoop=1;jettySize=auto;html=1;exitX=0.5;exitY=1;exitDx=0;exitDy=0;entryX=0.5;entryY=0;entryDx=0;entryDy=0;" edge="1" parent="1" target="z57WkmotIWv1s7nrHuUx-11">
          <mxGeometry relative="1" as="geometry">
            <mxPoint x="340" y="370" as="sourcePoint" />
            <mxPoint x="340" y="510" as="targetPoint" />
          </mxGeometry>
        </mxCell>
        <mxCell id="z57WkmotIWv1s7nrHuUx-14" style="edgeStyle=orthogonalEdgeStyle;rounded=0;orthogonalLoop=1;jettySize=auto;html=1;exitX=1;exitY=0.5;exitDx=0;exitDy=0;entryX=0.5;entryY=0;entryDx=0;entryDy=0;" edge="1" parent="1" source="z57WkmotIWv1s7nrHuUx-11" target="z57WkmotIWv1s7nrHuUx-4">
          <mxGeometry relative="1" as="geometry" />
        </mxCell>
        <mxCell id="z57WkmotIWv1s7nrHuUx-15" value="解析失败" style="edgeLabel;html=1;align=center;verticalAlign=middle;resizable=0;points=[];" vertex="1" connectable="0" parent="z57WkmotIWv1s7nrHuUx-14">
          <mxGeometry x="-0.5621" y="-3" relative="1" as="geometry">
            <mxPoint as="offset" />
          </mxGeometry>
        </mxCell>
        <mxCell id="z57WkmotIWv1s7nrHuUx-11" value="sourcemap解析" style="rhombus;whiteSpace=wrap;html=1;" vertex="1" parent="1">
          <mxGeometry x="277.5" y="330" width="125" height="130" as="geometry" />
        </mxCell>
      </root>
    </mxGraphModel>
  </diagram>
</mxfile>
